<svg width="128" height="128" viewBox="0 0 24 24" fill="none" xmlns="http://www.w3.org/2000/svg">
    <!-- World Globe Base -->
    <circle cx="12" cy="12" r="10" stroke="#333" stroke-width="1.5"/>
    <path d="M12 2C17.5228 2 22 6.47715 22 12C22 17.5228 17.5228 22 12 22C6.47715 22 2 17.5228 2 12C2 6.47715 6.47715 2 12 2Z" stroke="#333" stroke-width="1.5" stroke-linecap="round" stroke-linejoin="round"/>
    <path d="M2.5292 7.5H21.4708" stroke="#333" stroke-width="1.5" stroke-linecap="round" stroke-linejoin="round"/>
    <path d="M2.5292 16.5H21.4708" stroke="#333" stroke-width="1.5" stroke-linecap="round" stroke-linejoin="round"/>
    <path d="M12 2C14.7614 2 17 6.47715 17 12C17 17.5228 14.7614 22 12 22C9.23858 22 7 17.5228 7 12C7 6.47715 9.23858 2 12 2V2Z" stroke="#333" stroke-width="1.5" stroke-linecap="round" stroke-linejoin="round"/>

    <!-- Red Recording Button (positioned slightly to the bottom right of the globe) -->
    <circle cx="19" cy="19" r="4" fill="#EF4444"/> <!-- Red circle -->
    <circle cx="19" cy="19" r="1.5" fill="white"/> <!-- White inner circle for contrast -->
</svg>
